<svg xmlns="http://www.w3.org/2000/svg" xmlns:xlink="http://www.w3.org/1999/xlink" viewBox="0 0 111.59 100.24"><defs><style>.a{fill:#ffe7e7;}.b{fill:#d80000;}.c{fill:#ff3f3f;}.d{fill:#ffe7e7;}.e{isolation:isolate;}</style></defs><title>wallet</title><rect class="a" x="26.27" y="33" width="74" height="57" rx="6" ry="6"/><path class="b" d="M92.27,38.88H49.19a1,1,0,0,1,0-2H92.27a1,1,0,0,1,0,2Z" transform="translate(-14.2 -9.88)"/><path class="c" d="M44.76,36.11a1,1,0,0,1-.33-1.94L79,21.9c4.12-1.53,7.33-1.53,9.54,0,1.91,1.33,2.92,3.74,2.92,7v6a1,1,0,0,1-2,0v-6c0-1.77-.36-4.12-2.07-5.31s-4.28-1-7.72.23L45.09,36.05a1,1,0,0,1-.33.06" transform="translate(-14.2 -9.88)"/><path class="b" d="M106.47,54.28a1,1,0,0,1-1-1V52.06a1,1,0,1,1,2,0v1.22a1,1,0,0,1-1,1" transform="translate(-14.2 -9.88)"/><path class="b" d="M106.47,50.08a1,1,0,0,1-1-1V43.33A4.45,4.45,0,0,0,101,38.88H95.49a1,1,0,0,1,0-2H101a6.45,6.45,0,0,1,6.45,6.45v5.75a1,1,0,0,1-1,1" transform="translate(-14.2 -9.88)"/><path class="b" d="M47.47,93.88H39.92a6.45,6.45,0,0,1-6.45-6.45V43.33a6.45,6.45,0,0,1,6.45-6.45h5.59a1,1,0,0,1,0,2H39.92a4.45,4.45,0,0,0-4.45,4.45v44.1a4.45,4.45,0,0,0,4.45,4.45h7.19a1,1,0,1,1,0,2" transform="translate(-14.2 -9.88)"/><path class="b" d="M101.47,93.88H50.86a1,1,0,0,1,0-2H101a4.45,4.45,0,0,0,4.45-4.45V78a1,1,0,0,1,2,0v9.4A6.46,6.46,0,0,1,101,93.88" transform="translate(-14.2 -9.88)"/><path class="c" d="M97.89,65.22a3.69,3.69,0,1,1-3.69-3.69,3.69,3.69,0,0,1,3.69,3.69" transform="translate(-14.2 -9.88)"/><path class="c" d="M94.2,69.9a4.69,4.69,0,1,1,2.6-8.59A1,1,0,1,1,95.69,63a2.69,2.69,0,1,0,1.2,2.24,1,1,0,0,1,2,0A4.69,4.69,0,0,1,94.2,69.9" transform="translate(-14.2 -9.88)"/><path class="b" d="M107.47,76.88h-23a3,3,0,0,1-3-3V65.5a1,1,0,0,1,2,0v8.39a1,1,0,0,0,1,1h23a1,1,0,0,0,1-1v-16a1,1,0,0,0-1-1H94.11a1,1,0,0,1,0-2h13.37a3,3,0,0,1,3,3V73.61a3,3,0,0,1-3,3" transform="translate(-14.2 -9.88)"/><path class="b" d="M82.47,63.39a1,1,0,0,1-1-1V57.87a3,3,0,0,1,3-3h6.7a1,1,0,0,1,0,2h-6.7a1,1,0,0,0-1,1v4.52a1,1,0,0,1-1,1" transform="translate(-14.2 -9.88)"/><path class="c" d="M41.47,44.88h-1.6a1,1,0,0,1,0-2h2a1,1,0,0,1,0,2m7.6,0h-1.6a1,1,0,0,1,0-2h2a1,1,0,0,1,0,2m7.6,0h-1.6a1,1,0,0,1,0-2h2a1,1,0,0,1,0,2m7.6,0h-1.6a1,1,0,0,1,0-2h2a1,1,0,0,1,0,2m7.6,0h-1.6a1,1,0,0,1,0-2h2a1,1,0,0,1,0,2m7.6,0h-1.6a1,1,0,0,1,0-2h2a1,1,0,0,1,0,2m7.6,0h-1.6a1,1,0,0,1,0-2h2a1,1,0,0,1,0,2m7.6,0h-1.6a1,1,0,0,1,0-2h2a1,1,0,0,1,0,2" transform="translate(-14.2 -9.88)"/><path class="c" d="M41.47,88.88h-1.6a1,1,0,0,1,0-2h2a1,1,0,1,1,0,2m7.6,0h-1.6a1,1,0,0,1,0-2h2a1,1,0,1,1,0,2m7.6,0h-1.6a1,1,0,0,1,0-2h2a1,1,0,1,1,0,2m7.6,0h-1.6a1,1,0,0,1,0-2h2a1,1,0,0,1,0,2m7.6,0h-1.6a1,1,0,0,1,0-2h2a1,1,0,0,1,0,2m7.6,0h-1.6a1,1,0,0,1,0-2h2a1,1,0,0,1,0,2m7.6,0h-1.6a1,1,0,0,1,0-2h2a1,1,0,0,1,0,2m7.6,0h-1.6a1,1,0,0,1,0-2h2a1,1,0,0,1,0,2" transform="translate(-14.2 -9.88)"/><path class="d" d="M34.51,23.61a1.1,1.1,0,1,0,1.1,1.1,1.11,1.11,0,0,0-1.1-1.1m0,4.21a3.1,3.1,0,1,1,3.1-3.1,3.11,3.11,0,0,1-3.1,3.1" transform="translate(-14.2 -9.88)"/><path class="d" d="M17.28,28.88h2l-1-1.64Zm4,2h-6a1.07,1.07,0,0,1-.9-1.64l3.06-4.86a1.07,1.07,0,0,1,.91-.5h0a1.07,1.07,0,0,1,.91.51l3,4.86a1.07,1.07,0,0,1-.91,1.63Z" transform="translate(-14.2 -9.88)"/><polygon class="d" points="6.89 20 1.27 20 4.08 15.46 6.89 20"/><path class="d" d="M97.47,28.88h2v-2h-2Zm3,2h-4a1,1,0,0,1-1-1v-4a1,1,0,0,1,1-1h4a1,1,0,0,1,1,1v4a1,1,0,0,1-1,1Z" transform="translate(-14.2 -9.88)"/><polygon class="d" points="82.27 20 86.27 20 86.27 16 82.27 16 82.27 20"/><path class="d" d="M42.81,110.12a1,1,0,0,1-.71-.29L38.23,106a1,1,0,1,1,1.41-1.41l3.88,3.88a1,1,0,0,1-.71,1.71" transform="translate(-14.2 -9.88)"/><path class="d" d="M38.94,110.12a1,1,0,0,1-.71-1.71l3.88-3.88A1,1,0,1,1,43.52,106l-3.88,3.88a1,1,0,0,1-.71.29" transform="translate(-14.2 -9.88)"/><path class="d" d="M123.52,30.26a1,1,0,0,1-.71-.29l-4.22-4.22A1,1,0,1,1,120,24.33l4.22,4.22a1,1,0,0,1-.71,1.71" transform="translate(-14.2 -9.88)"/><path class="d" d="M119.3,30.26a1,1,0,0,1-.71-1.71l4.22-4.22a1,1,0,0,1,1.41,1.41L120,30a1,1,0,0,1-.71.29" transform="translate(-14.2 -9.88)"/><path class="d" d="M121.47,78.45a1,1,0,0,1-1-1V71.63a1,1,0,0,1,2,0v5.81a1,1,0,0,1-1,1" transform="translate(-14.2 -9.88)"/><path class="d" d="M124.47,75.88H119a1,1,0,0,1,0-2h5.81a1,1,0,0,1,0,2" transform="translate(-14.2 -9.88)"/><path class="d" d="M98.47,17.85a1,1,0,0,1-1-1v-6a1,1,0,1,1,2,0v6a1,1,0,0,1-1,1" transform="translate(-14.2 -9.88)"/><path class="d" d="M101.47,14.88H95.59a1,1,0,0,1,0-2h6a1,1,0,0,1,0,2" transform="translate(-14.2 -9.88)"/><path class="d" d="M23.47,52.88h1v-1h-1Zm2.07,2H22.47a1,1,0,0,1-1-1v-3a1,1,0,0,1,1-1h3a1,1,0,0,1,1,1v3.07a.93.93,0,0,1-.93.93Z" transform="translate(-14.2 -9.88)"/><polygon class="d" points="8.27 44 11.27 44 11.27 41 8.27 41 8.27 44"/></svg>